<?xml version="1.0" encoding="UTF-8"?>
<svg xmlns="http://www.w3.org/2000/svg" xmlns:xlink="http://www.w3.org/1999/xlink" width="35pt" height="35pt" viewBox="0 0 35 35" version="1.1">
<g id="surface1">
<path style=" stroke:none;fill-rule:nonzero;fill:rgb(0%,0%,0%);fill-opacity:1;" d="M 28.84375 14.476562 L 28.84375 30.785156 L 22.6875 30.785156 L 22.6875 23.730469 C 22.6875 23.113281 22.183594 22.613281 21.566406 22.613281 L 13.695312 22.613281 C 13.074219 22.613281 12.574219 23.113281 12.574219 23.730469 L 12.574219 30.785156 L 6.457031 30.785156 L 6.457031 14.476562 L 4.214844 14.476562 L 4.214844 31.902344 C 4.214844 32.519531 4.71875 33.023438 5.335938 33.023438 L 13.695312 33.023438 C 14.3125 33.023438 14.8125 32.519531 14.8125 31.902344 L 14.8125 24.851562 L 20.449219 24.851562 L 20.449219 31.902344 C 20.449219 32.519531 20.949219 33.023438 21.566406 33.023438 L 29.960938 33.023438 C 30.582031 33.023438 31.082031 32.519531 31.082031 31.902344 L 31.082031 14.476562 Z M 28.84375 14.476562 "/>
<path style=" stroke:none;fill-rule:nonzero;fill:rgb(0%,0%,0%);fill-opacity:1;" d="M 34.644531 17.464844 L 18.414062 2.28125 C 17.988281 1.878906 17.324219 1.875 16.890625 2.273438 L 0.363281 17.460938 C -0.09375 17.878906 -0.125 18.585938 0.296875 19.039062 C 0.515625 19.28125 0.816406 19.402344 1.121094 19.402344 C 1.390625 19.402344 1.660156 19.304688 1.875 19.109375 L 17.640625 4.625 L 33.117188 19.101562 C 33.566406 19.523438 34.277344 19.5 34.699219 19.046875 C 35.121094 18.597656 35.097656 17.890625 34.644531 17.464844 Z M 34.644531 17.464844 "/>
</g>
</svg>
