<?xml version="1.0" encoding="UTF-8"?>
<svg xmlns="http://www.w3.org/2000/svg" xmlns:xlink="http://www.w3.org/1999/xlink" width="76pt" height="76pt" viewBox="0 0 76 76" version="1.1">
<g id="surface1">
<path style=" stroke:none;fill-rule:nonzero;fill:rgb(92.941176%,49.019608%,19.607843%);fill-opacity:1;" d="M 1.472656 16.746094 L 7.941406 16.746094 L 7.941406 55.167969 C 11.082031 54.691406 14.25 54.445312 17.425781 54.429688 C 21.863281 54.359375 26.277344 55.023438 30.496094 56.402344 L 34.074219 59.261719 C 31.96875 59.027344 25.617188 58.910156 23.539062 58.910156 C 16.679688 58.847656 9.875 60.171875 3.535156 62.796875 L 1.472656 63.679688 Z M 1.472656 16.746094 "/>
<path style=" stroke:none;fill-rule:nonzero;fill:rgb(92.941176%,49.019608%,19.607843%);fill-opacity:1;" d="M 72.449219 62.796875 C 66.109375 60.171875 59.304688 58.847656 52.445312 58.910156 C 50.351562 58.910156 44.371094 59.144531 42.28125 59.378906 L 45.492188 56.433594 C 49.722656 55.039062 54.160156 54.363281 58.617188 54.429688 C 61.792969 54.445312 64.964844 54.691406 68.105469 55.167969 L 68.105469 16.746094 L 74.570312 16.746094 L 74.570312 63.695312 Z M 72.449219 62.796875 "/>
<path style=" stroke:none;fill-rule:nonzero;fill:rgb(100%,100%,100%);fill-opacity:1;" d="M 35.710938 58.894531 C 32.601562 56.859375 26.871094 54.472656 17.414062 54.472656 C 14.796875 54.484375 12.183594 54.65625 9.589844 54.988281 L 7.941406 55.195312 L 7.941406 13.550781 L 9.089844 13.285156 C 12.0625 12.625 15.101562 12.289062 18.148438 12.28125 C 23.925781 12.28125 31.980469 13.625 37.625 19.988281 L 37.992188 20.355469 L 37.992188 60.394531 Z M 35.710938 58.894531 "/>
<path style=" stroke:none;fill-rule:nonzero;fill:rgb(100%,100%,100%);fill-opacity:1;" d="M 37.992188 20.355469 L 38.359375 19.945312 C 44.003906 13.566406 52.074219 12.238281 57.835938 12.238281 C 60.882812 12.246094 63.921875 12.582031 66.894531 13.242188 L 68.046875 13.507812 L 68.046875 55.152344 L 66.394531 54.945312 C 63.816406 54.613281 61.21875 54.441406 58.617188 54.429688 C 49.113281 54.429688 43.429688 56.859375 40.320312 58.847656 L 38.035156 60.324219 Z M 37.992188 20.355469 "/>
<path style=" stroke:none;fill-rule:nonzero;fill:rgb(24.705882%,18.039216%,10.588235%);fill-opacity:1;" d="M 74.511719 15.273438 L 69.519531 15.273438 L 69.519531 13.566406 C 69.546875 12.886719 69.109375 12.28125 68.457031 12.089844 C 64.992188 11.183594 61.421875 10.726562 57.835938 10.738281 C 51.945312 10.738281 43.914062 12.0625 37.976562 18.101562 C 32.085938 12.003906 23.996094 10.738281 18.121094 10.738281 C 14.535156 10.726562 10.964844 11.183594 7.5 12.089844 C 6.847656 12.28125 6.410156 12.886719 6.4375 13.566406 L 6.4375 15.257812 L 1.472656 15.257812 C 0.660156 15.257812 0 15.917969 0 16.730469 L 0 63.785156 C 0 64.597656 0.660156 65.257812 1.472656 65.257812 C 1.726562 65.257812 1.976562 65.191406 2.195312 65.066406 C 2.34375 64.992188 17.074219 56.933594 37.640625 62.121094 L 37.992188 62.121094 C 38.109375 62.132812 38.230469 62.132812 38.347656 62.121094 C 58.96875 56.890625 73.703125 64.933594 73.789062 65.066406 C 74.246094 65.328125 74.808594 65.328125 75.261719 65.066406 C 75.714844 64.804688 75.996094 64.324219 76 63.800781 L 76 16.746094 C 76 15.933594 75.339844 15.273438 74.527344 15.273438 C 74.523438 15.273438 74.515625 15.273438 74.511719 15.273438 Z M 2.945312 61.441406 L 2.945312 18.21875 L 6.46875 18.21875 L 6.46875 55.167969 C 6.457031 55.980469 7.109375 56.648438 7.921875 56.65625 C 8.003906 56.65625 8.082031 56.652344 8.160156 56.640625 C 11.207031 56.175781 14.285156 55.929688 17.367188 55.902344 C 21.640625 55.828125 25.890625 56.472656 29.949219 57.804688 C 20.785156 56.695312 11.488281 57.949219 2.945312 61.441406 Z M 36.519531 57.671875 C 33.457031 55.667969 27.472656 52.972656 17.367188 52.972656 C 14.6875 52.976562 12.011719 53.148438 9.355469 53.488281 L 9.355469 14.730469 C 12.222656 14.089844 15.152344 13.761719 18.089844 13.757812 C 23.601562 13.757812 31.203125 15.023438 36.476562 20.976562 Z M 39.464844 20.976562 C 44.738281 15.082031 52.339844 13.757812 57.851562 13.757812 C 60.789062 13.765625 63.71875 14.089844 66.585938 14.730469 L 66.585938 53.488281 C 63.941406 53.148438 61.28125 52.96875 58.617188 52.957031 C 48.570312 52.957031 42.574219 55.652344 39.464844 57.65625 Z M 73.039062 61.441406 C 64.476562 57.9375 55.160156 56.6875 45.976562 57.804688 C 50.054688 56.464844 54.328125 55.824219 58.617188 55.902344 C 61.71875 55.921875 64.816406 56.160156 67.882812 56.625 C 68.6875 56.746094 69.4375 56.195312 69.558594 55.390625 C 69.574219 55.3125 69.578125 55.230469 69.578125 55.152344 L 69.578125 18.21875 L 73.097656 18.21875 Z M 73.039062 61.441406 "/>
</g>
</svg>
