<?xml version="1.0" encoding="UTF-8"?>
<svg xmlns="http://www.w3.org/2000/svg" xmlns:xlink="http://www.w3.org/1999/xlink" width="35pt" height="35pt" viewBox="0 0 35 35" version="1.1">
<g id="surface1">
<path style=" stroke:none;fill-rule:nonzero;fill:rgb(0%,0%,0%);fill-opacity:1;" d="M 33.316406 5.414062 C 32.578125 2.683594 27.09375 0 17.5 0 C 7.90625 0 2.421875 2.683594 1.683594 5.414062 C 1.628906 5.507812 1.589844 5.613281 1.589844 5.726562 L 1.589844 29.273438 C 1.589844 29.375 1.617188 29.472656 1.664062 29.558594 C 2.417969 32.675781 9.140625 35 17.5 35 C 25.839844 35 32.554688 32.683594 33.328125 29.582031 C 33.378906 29.488281 33.410156 29.382812 33.410156 29.273438 L 33.410156 5.726562 C 33.410156 5.613281 33.371094 5.507812 33.316406 5.414062 Z M 32.085938 21.625 C 32.066406 21.703125 32.042969 21.78125 32.011719 21.859375 C 31.988281 21.921875 31.957031 21.984375 31.921875 22.046875 C 31.878906 22.125 31.832031 22.203125 31.773438 22.28125 C 31.730469 22.339844 31.683594 22.398438 31.636719 22.457031 C 31.5625 22.542969 31.488281 22.625 31.402344 22.707031 C 31.351562 22.757812 31.296875 22.808594 31.238281 22.859375 C 31.132812 22.949219 31.023438 23.039062 30.902344 23.128906 C 30.851562 23.167969 30.796875 23.203125 30.738281 23.242188 C 30.597656 23.34375 30.445312 23.441406 30.28125 23.539062 C 30.238281 23.5625 30.191406 23.589844 30.144531 23.613281 C 29.957031 23.722656 29.757812 23.828125 29.546875 23.929688 C 29.519531 23.945312 29.488281 23.957031 29.460938 23.96875 C 29.222656 24.082031 28.972656 24.191406 28.707031 24.300781 C 28.699219 24.300781 28.691406 24.304688 28.683594 24.308594 C 27.238281 24.886719 25.390625 25.371094 23.234375 25.6875 C 23.226562 25.691406 23.214844 25.691406 23.203125 25.695312 C 22.785156 25.753906 22.355469 25.808594 21.914062 25.859375 C 21.84375 25.867188 21.765625 25.871094 21.695312 25.878906 C 21.308594 25.917969 20.917969 25.957031 20.519531 25.984375 C 20.335938 26 20.144531 26.003906 19.957031 26.015625 C 19.65625 26.035156 19.355469 26.054688 19.046875 26.066406 C 18.542969 26.082031 18.027344 26.089844 17.5 26.089844 C 16.972656 26.089844 16.457031 26.082031 15.953125 26.0625 C 15.644531 26.050781 15.34375 26.03125 15.042969 26.015625 C 14.855469 26.003906 14.664062 25.996094 14.480469 25.984375 C 14.082031 25.953125 13.691406 25.917969 13.304688 25.878906 C 13.234375 25.871094 13.15625 25.863281 13.085938 25.855469 C 12.644531 25.808594 12.214844 25.753906 11.796875 25.691406 C 11.785156 25.691406 11.773438 25.6875 11.765625 25.6875 C 9.609375 25.371094 7.761719 24.882812 6.316406 24.304688 C 6.308594 24.304688 6.300781 24.300781 6.292969 24.296875 C 6.027344 24.191406 5.777344 24.078125 5.539062 23.96875 C 5.511719 23.953125 5.480469 23.941406 5.453125 23.929688 C 5.242188 23.824219 5.042969 23.71875 4.851562 23.613281 C 4.808594 23.585938 4.761719 23.5625 4.71875 23.535156 C 4.554688 23.4375 4.402344 23.339844 4.257812 23.242188 C 4.203125 23.203125 4.148438 23.164062 4.09375 23.125 C 3.972656 23.035156 3.867188 22.945312 3.761719 22.855469 C 3.703125 22.804688 3.648438 22.757812 3.59375 22.707031 C 3.511719 22.621094 3.433594 22.539062 3.363281 22.457031 C 3.316406 22.398438 3.265625 22.339844 3.226562 22.28125 C 3.167969 22.203125 3.121094 22.125 3.078125 22.042969 C 3.042969 21.980469 3.011719 21.917969 2.988281 21.855469 C 2.957031 21.777344 2.929688 21.703125 2.914062 21.625 C 2.890625 21.523438 2.863281 21.421875 2.863281 21.316406 C 2.863281 21.246094 2.871094 21.175781 2.882812 21.101562 C 2.898438 21.007812 2.890625 20.910156 2.863281 20.820312 L 2.863281 16.09375 C 2.882812 16.113281 2.902344 16.128906 2.921875 16.144531 C 3.0625 16.265625 3.203125 16.386719 3.359375 16.503906 C 5.757812 18.320312 10.550781 19.726562 17.5 19.726562 C 24.417969 19.726562 29.199219 18.328125 31.609375 16.527344 C 31.800781 16.386719 31.972656 16.242188 32.136719 16.097656 L 32.136719 16.09375 L 32.136719 20.820312 C 32.109375 20.910156 32.101562 21.007812 32.117188 21.101562 C 32.128906 21.175781 32.136719 21.246094 32.136719 21.316406 C 32.136719 21.421875 32.109375 21.523438 32.085938 21.625 Z M 32.136719 8.460938 L 32.136719 13.183594 C 32.109375 13.273438 32.101562 13.371094 32.117188 13.464844 C 32.128906 13.539062 32.136719 13.609375 32.136719 13.683594 C 32.136719 13.785156 32.109375 13.886719 32.085938 13.992188 C 32.066406 14.066406 32.042969 14.144531 32.011719 14.222656 C 31.988281 14.285156 31.957031 14.347656 31.921875 14.410156 C 31.878906 14.488281 31.832031 14.566406 31.773438 14.644531 C 31.730469 14.703125 31.683594 14.761719 31.636719 14.820312 C 31.5625 14.90625 31.488281 14.988281 31.402344 15.070312 C 31.351562 15.121094 31.296875 15.171875 31.238281 15.222656 C 31.132812 15.3125 31.023438 15.402344 30.902344 15.492188 C 30.851562 15.53125 30.796875 15.570312 30.738281 15.605469 C 30.597656 15.707031 30.445312 15.804688 30.28125 15.902344 C 30.238281 15.925781 30.191406 15.953125 30.144531 15.976562 C 29.957031 16.085938 29.757812 16.191406 29.546875 16.292969 C 29.519531 16.308594 29.488281 16.320312 29.460938 16.332031 C 29.222656 16.445312 28.972656 16.554688 28.707031 16.664062 C 28.699219 16.667969 28.691406 16.667969 28.683594 16.671875 C 27.238281 17.25 25.390625 17.734375 23.234375 18.054688 C 23.226562 18.054688 23.214844 18.054688 23.203125 18.058594 C 22.785156 18.121094 22.355469 18.175781 21.914062 18.222656 C 21.84375 18.230469 21.765625 18.234375 21.695312 18.242188 C 21.308594 18.28125 20.917969 18.320312 20.519531 18.347656 C 20.335938 18.363281 20.144531 18.367188 19.957031 18.378906 C 19.65625 18.398438 19.355469 18.417969 19.046875 18.429688 C 18.542969 18.445312 18.027344 18.453125 17.5 18.453125 C 16.972656 18.453125 16.457031 18.445312 15.953125 18.425781 C 15.644531 18.414062 15.34375 18.394531 15.042969 18.378906 C 14.855469 18.367188 14.664062 18.359375 14.480469 18.347656 C 14.082031 18.316406 13.691406 18.28125 13.304688 18.242188 C 13.234375 18.234375 13.15625 18.226562 13.085938 18.21875 C 12.644531 18.171875 12.214844 18.117188 11.796875 18.054688 C 11.785156 18.054688 11.773438 18.054688 11.765625 18.050781 C 9.609375 17.734375 7.761719 17.246094 6.316406 16.671875 C 6.308594 16.667969 6.300781 16.664062 6.292969 16.660156 C 6.027344 16.554688 5.777344 16.445312 5.539062 16.332031 C 5.511719 16.316406 5.480469 16.304688 5.453125 16.292969 C 5.242188 16.1875 5.042969 16.082031 4.851562 15.976562 C 4.808594 15.949219 4.761719 15.925781 4.71875 15.898438 C 4.554688 15.804688 4.402344 15.703125 4.257812 15.605469 C 4.203125 15.566406 4.148438 15.527344 4.09375 15.492188 C 3.972656 15.402344 3.867188 15.308594 3.761719 15.21875 C 3.703125 15.167969 3.648438 15.121094 3.59375 15.070312 C 3.511719 14.988281 3.433594 14.902344 3.363281 14.820312 C 3.316406 14.761719 3.265625 14.703125 3.226562 14.644531 C 3.167969 14.566406 3.121094 14.488281 3.078125 14.410156 C 3.042969 14.34375 3.011719 14.28125 2.988281 14.21875 C 2.957031 14.140625 2.929688 14.066406 2.914062 13.988281 C 2.890625 13.886719 2.863281 13.785156 2.863281 13.683594 C 2.863281 13.609375 2.871094 13.539062 2.882812 13.464844 C 2.898438 13.371094 2.890625 13.273438 2.863281 13.183594 L 2.863281 8.460938 C 2.941406 8.527344 3.027344 8.597656 3.109375 8.664062 C 3.15625 8.703125 3.199219 8.742188 3.246094 8.78125 C 3.4375 8.929688 3.644531 9.078125 3.867188 9.222656 C 3.914062 9.253906 3.964844 9.28125 4.015625 9.3125 C 4.203125 9.429688 4.398438 9.542969 4.605469 9.652344 C 4.683594 9.695312 4.761719 9.738281 4.839844 9.777344 C 5.074219 9.894531 5.316406 10.011719 5.574219 10.121094 C 5.617188 10.140625 5.652344 10.160156 5.695312 10.175781 C 5.996094 10.304688 6.3125 10.425781 6.640625 10.542969 C 6.730469 10.574219 6.828125 10.605469 6.921875 10.636719 C 7.183594 10.726562 7.453125 10.808594 7.734375 10.890625 C 7.835938 10.921875 7.933594 10.953125 8.039062 10.980469 C 8.410156 11.082031 8.796875 11.179688 9.199219 11.269531 C 9.253906 11.285156 9.316406 11.292969 9.371094 11.304688 C 9.726562 11.382812 10.09375 11.457031 10.472656 11.523438 C 10.601562 11.546875 10.734375 11.566406 10.863281 11.589844 C 11.226562 11.648438 11.597656 11.703125 11.976562 11.753906 C 12.078125 11.765625 12.167969 11.78125 12.269531 11.792969 C 12.742188 11.847656 13.234375 11.898438 13.734375 11.941406 C 13.859375 11.949219 13.988281 11.957031 14.113281 11.96875 C 14.519531 11.996094 14.929688 12.019531 15.351562 12.039062 C 15.503906 12.046875 15.65625 12.054688 15.8125 12.058594 C 16.363281 12.078125 16.921875 12.089844 17.5 12.089844 C 18.078125 12.089844 18.636719 12.078125 19.1875 12.058594 C 19.34375 12.054688 19.496094 12.046875 19.648438 12.039062 C 20.070312 12.019531 20.480469 11.996094 20.886719 11.96875 C 21.011719 11.957031 21.140625 11.949219 21.265625 11.941406 C 21.765625 11.898438 22.257812 11.847656 22.730469 11.792969 C 22.832031 11.78125 22.921875 11.765625 23.023438 11.753906 C 23.402344 11.703125 23.773438 11.648438 24.136719 11.589844 C 24.265625 11.566406 24.398438 11.546875 24.527344 11.523438 C 24.90625 11.457031 25.273438 11.382812 25.628906 11.304688 C 25.683594 11.292969 25.746094 11.285156 25.800781 11.269531 C 26.203125 11.179688 26.589844 11.082031 26.960938 10.980469 C 27.066406 10.953125 27.164062 10.921875 27.265625 10.890625 C 27.546875 10.808594 27.816406 10.726562 28.078125 10.636719 C 28.171875 10.605469 28.269531 10.574219 28.359375 10.542969 C 28.6875 10.425781 29.007812 10.304688 29.304688 10.175781 C 29.347656 10.160156 29.382812 10.140625 29.425781 10.121094 C 29.683594 10.011719 29.925781 9.894531 30.160156 9.777344 C 30.238281 9.738281 30.316406 9.695312 30.394531 9.652344 C 30.601562 9.542969 30.796875 9.429688 30.984375 9.3125 C 31.035156 9.28125 31.085938 9.253906 31.132812 9.222656 C 31.355469 9.078125 31.5625 8.929688 31.753906 8.78125 C 31.800781 8.742188 31.84375 8.703125 31.890625 8.664062 C 31.972656 8.597656 32.058594 8.527344 32.136719 8.460938 Z M 17.5 1.273438 C 26.125 1.273438 32.136719 3.789062 32.136719 6.046875 C 32.136719 8.304688 26.125 10.816406 17.5 10.816406 C 8.875 10.816406 2.863281 8.304688 2.863281 6.046875 C 2.863281 3.789062 8.875 1.273438 17.5 1.273438 Z M 32.136719 29.082031 C 32.128906 29.113281 32.121094 29.140625 32.117188 29.167969 C 31.753906 31.371094 25.796875 33.726562 17.5 33.726562 C 9.203125 33.726562 3.246094 31.371094 2.882812 29.167969 C 2.878906 29.140625 2.871094 29.113281 2.863281 29.085938 L 2.863281 23.730469 C 2.882812 23.75 2.902344 23.765625 2.921875 23.78125 C 3.0625 23.902344 3.203125 24.023438 3.359375 24.140625 C 5.757812 25.953125 10.550781 27.363281 17.5 27.363281 C 24.417969 27.363281 29.199219 25.964844 31.609375 24.164062 C 31.800781 24.023438 31.972656 23.878906 32.136719 23.734375 L 32.136719 23.730469 Z M 32.136719 29.082031 "/>
</g>
</svg>
