<?xml version="1.0" encoding="UTF-8"?>
<svg xmlns="http://www.w3.org/2000/svg" xmlns:xlink="http://www.w3.org/1999/xlink" width="30pt" height="30pt" viewBox="0 0 30 30" version="1.1">
<g id="surface1">
<path style=" stroke:none;fill-rule:nonzero;fill:rgb(0%,0%,0%);fill-opacity:1;" d="M 24.722656 12.410156 L 24.722656 26.386719 L 19.445312 26.386719 L 19.445312 20.339844 C 19.445312 19.8125 19.015625 19.382812 18.484375 19.382812 L 11.738281 19.382812 C 11.207031 19.382812 10.777344 19.8125 10.777344 20.339844 L 10.777344 26.386719 L 5.53125 26.386719 L 5.53125 12.410156 L 3.613281 12.410156 L 3.613281 27.34375 C 3.613281 27.875 4.042969 28.304688 4.574219 28.304688 L 11.738281 28.304688 C 12.269531 28.304688 12.695312 27.875 12.695312 27.34375 L 12.695312 21.300781 L 17.527344 21.300781 L 17.527344 27.34375 C 17.527344 27.875 17.957031 28.304688 18.484375 28.304688 L 25.683594 28.304688 C 26.210938 28.304688 26.640625 27.875 26.640625 27.34375 L 26.640625 12.410156 Z M 24.722656 12.410156 "/>
<path style=" stroke:none;fill-rule:nonzero;fill:rgb(0%,0%,0%);fill-opacity:1;" d="M 29.695312 14.972656 L 15.785156 1.953125 C 15.417969 1.609375 14.847656 1.609375 14.480469 1.949219 L 0.308594 14.964844 C -0.078125 15.324219 -0.105469 15.929688 0.253906 16.320312 C 0.441406 16.527344 0.699219 16.632812 0.960938 16.632812 C 1.191406 16.632812 1.425781 16.546875 1.609375 16.378906 L 15.121094 3.964844 L 28.386719 16.371094 C 28.773438 16.734375 29.378906 16.714844 29.742188 16.328125 C 30.101562 15.941406 30.082031 15.332031 29.695312 14.972656 Z M 29.695312 14.972656 "/>
</g>
</svg>
