<?xml version="1.0" encoding="UTF-8" standalone="no"?>
<svg
   xmlns:dc="http://purl.org/dc/elements/1.1/"
   xmlns:cc="http://creativecommons.org/ns#"
   xmlns:rdf="http://www.w3.org/1999/02/22-rdf-syntax-ns#"
   xmlns:svg="http://www.w3.org/2000/svg"
   xmlns="http://www.w3.org/2000/svg"
   xml:space="preserve"
   style="enable-background:new 0 0 512 512;"
   viewBox="0 0 512 512"
   y="0px"
   x="0px"
   id="Capa_1"
   version="1.1"><metadata
     id="metadata49"><rdf:RDF><cc:Work
         rdf:about=""><dc:format>image/svg+xml</dc:format><dc:type
           rdf:resource="http://purl.org/dc/dcmitype/StillImage" /></cc:Work></rdf:RDF></metadata><defs
     id="defs47" /><circle
     id="circle2"
     r="256"
     cy="256"
     cx="256"
     style="fill:#FFD400;" /><path
     id="path4"
     d="M512,256c0-0.116-0.004-0.231-0.004-0.347L375.342,119L100.125,374.733l136.543,136.543  C243.05,511.753,249.496,512,256,512C397.385,512,512,397.385,512,256z"
     style="fill:#FF9F00;" /><path
     id="path6"
     d="M100.124,155.533v219.2h112.584C218.736,385.51,235.359,393,256,393s37.264-7.49,43.292-18.267  h112.584v-219.2H100.124z"
     style="fill:#5A5A5A;" /><path
     id="path8"
     d="M411.876,155.533v219.2H299.292C293.264,385.51,276.641,393,256,393V155.533H411.876z"
     style="fill:#444444;" /><path
     id="path10"
     d="M270.43,119L256,133.43L241.57,119H136.658v219.2h97.239L256,360.302l22.103-22.102h97.239V119  H270.43z"
     style="fill:#E7E7E7;" /><polygon
     id="polygon12"
     points="375.342,119 375.342,338.2 278.103,338.2 256,360.302 256,133.43 270.43,119 "
     style="fill:#D3D3D8;" /><g
     id="g14" /><g
     id="g16" /><g
     id="g18" /><g
     id="g20" /><g
     id="g22" /><g
     id="g24" /><g
     id="g26" /><g
     id="g28" /><g
     id="g30" /><g
     id="g32" /><g
     id="g34" /><g
     id="g36" /><g
     id="g38" /><g
     id="g40" /><g
     id="g42" /></svg>